<svg width="64" height="64" viewBox="0 0 64 64" fill="none" xmlns="http://www.w3.org/2000/svg">
<path opacity="0.25" d="M48.0014 5.33472H16.0014C10.1103 5.33472 5.33472 10.1103 5.33472 16.0014V48.0014C5.33472 53.8924 10.1103 58.668 16.0014 58.668H48.0014C53.8924 58.668 58.668 53.8924 58.668 48.0014V16.0014C58.668 10.1103 53.8924 5.33472 48.0014 5.33472Z" fill="#2B7FFF"/>
<path opacity="0.5" d="M41.3327 14.668H22.666C18.2477 14.668 14.666 18.2497 14.666 22.668V41.3346C14.666 45.7529 18.2477 49.3346 22.666 49.3346H41.3327C45.7509 49.3346 49.3327 45.7529 49.3327 41.3346V22.668C49.3327 18.2497 45.7509 14.668 41.3327 14.668Z" fill="#2B7FFF"/>
<path d="M36 24H28C25.7908 24 24 25.7908 24 28V36C24 38.2092 25.7908 40 28 40H36C38.2092 40 40 38.2092 40 36V28C40 25.7908 38.2092 24 36 24Z" fill="#2B7FFF"/>
</svg>
